# xmcd CD database file
#
# Track frame offsets:
#	150
#	14858
#	25977
#	39271
#	50310
#	58949
#	69978
#	90023
#	100644
#	113342
#
# Disc length: 1657 seconds
#
# Revision: 0
# Processed by: cddbd v1.5.2PL0 Copyright (c) Steve Scherf et al.
# Submitted via: CDex 1.70beta2
#
DISCID=6f06770a
DTITLE=Angelo Spencer - Drummed!
DYEAR=2007
DGENRE=Blues
TTITLE0=Fearless Freak
TTITLE1=Big Hiking Shoes
TTITLE2=Ben Stiller
TTITLE3=Moutiers
TTITLE4=Bicycle Free NYC
TTITLE5=All My Friends
TTITLE6=Alex
TTITLE7=Weird Colors
TTITLE8=Spaceship
TTITLE9=Cousteau
EXTD=YEAR: 2007
EXTT0=
EXTT1=
EXTT2=
EXTT3=
EXTT4=
EXTT5=
EXTT6=
EXTT7=
EXTT8=
EXTT9=
PLAYORDER=
